<?xml version="1.0" encoding="UTF-8"?>
<svg version="1.1" xmlns="http://www.w3.org/2000/svg" width="1024" height="1024">
<path d="M0 0 C337.92 0 675.84 0 1024 0 C1024 337.92 1024 675.84 1024 1024 C686.08 1024 348.16 1024 0 1024 C0 686.08 0 348.16 0 0 Z " fill="#FDFDFD" transform="translate(0,0)"/>
<path d="M0 0 C0.33 0 0.66 0 1 0 C1.30450672 75.41460268 1.30450672 75.41460268 -4 104 C-4.20544434 105.12946045 -4.20544434 105.12946045 -4.41503906 106.28173828 C-5.19775419 110.53966773 -6.09121618 114.76754715 -7 119 C-7.27426269 120.33739801 -7.54809305 121.67488474 -7.8215332 123.01245117 C-10.05850241 133.73339148 -13.05506898 143.98729189 -16.6875 154.3125 C-17.08291992 155.44828995 -17.08291992 155.44828995 -17.48632812 156.60702515 C-26.43616891 182.28289179 -37.59524399 206.49587702 -53 229 C-53.45342773 229.66837891 -53.90685547 230.33675781 -54.37402344 231.02539062 C-60.32703124 239.76601264 -66.54088297 248.10884343 -73.484375 256.0859375 C-75.73527476 258.69334623 -77.8803792 261.34835141 -80 264.0625 C-83.89385383 268.9840101 -88.10637556 273.55675531 -92.38671875 278.140625 C-94.25046068 280.17987626 -95.98575018 282.20887665 -97.70703125 284.359375 C-98.46371094 285.23078125 -99.22039062 286.1021875 -100 287 C-100.66 287 -101.32 287 -102 287 C-102.21011719 287.54527344 -102.42023438 288.09054687 -102.63671875 288.65234375 C-104.50016306 291.86131232 -107.07880892 294.11053429 -109.8125 296.5625 C-110.39435059 297.0898877 -110.97620117 297.61727539 -111.57568359 298.16064453 C-113.37572469 299.78305957 -115.18586745 301.3933679 -117 303 C-117.52029785 303.4635791 -118.0405957 303.9271582 -118.57666016 304.40478516 C-159.23900855 340.42453003 -239.53440085 400.97592752 -295.55712891 400.37109375 C-301.88459637 399.68908052 -307.43087976 397.07765258 -313.1875 394.5 C-314.53484452 393.9137279 -315.88259221 393.3283816 -317.23071289 392.74389648 C-321.50783887 390.8740473 -325.75741578 388.94678282 -330 387 C-330.70535889 386.67654602 -331.41071777 386.35309204 -332.13745117 386.01983643 C-351.02741814 377.3266628 -369.24692982 367.85437267 -387 357 C-388.83547936 355.89767429 -390.67141401 354.79610633 -392.5078125 353.6953125 C-403.34321561 347.14967687 -413.72863723 340.14901838 -423.87548828 332.58203125 C-425.96997883 331.02235546 -428.07543376 329.47863082 -430.18359375 327.9375 C-438.62905158 321.72840343 -446.69169554 315.18550082 -454.56201172 308.26318359 C-455.76550206 307.20599191 -456.97745679 306.1584463 -458.19140625 305.11328125 C-460.14582946 303.42815226 -462.07691455 301.72084214 -464 300 C-464.47791992 299.57251465 -464.95583984 299.1450293 -465.44824219 298.70458984 C-472.74368398 292.15199699 -479.60346977 285.44994862 -486 278 C-486.94355057 276.91886933 -487.88758991 275.8381651 -488.83203125 274.7578125 C-491.92615597 271.20357441 -494.96827044 267.60748265 -498 264 C-498.53608887 263.36884277 -499.07217773 262.73768555 -499.62451172 262.08740234 C-501.20422167 260.21753187 -502.7609496 258.3307639 -504.3125 256.4375 C-504.79895996 255.86612305 -505.28541992 255.29474609 -505.78662109 254.70605469 C-507.83594076 252.16118736 -509.00636823 250.6286349 -508.97265625 247.30078125 C-506.08130768 240.46140651 -498.42421231 235.8262686 -492.8125 231.3125 C-490.19034106 229.15650265 -487.68391432 226.92432897 -485.1875 224.625 C-480.69727264 220.52739983 -475.98202439 216.80789015 -471.17919922 213.09082031 C-466.73676157 209.63222952 -462.54781833 205.96711244 -458.3984375 202.16015625 C-454.61658367 198.75402406 -450.65319084 195.57979447 -446.69726562 192.37939453 C-443.17959683 189.52052964 -439.68555184 186.63280338 -436.1875 183.75 C-435.47005615 183.15936768 -434.7526123 182.56873535 -434.01342773 181.96020508 C-433.32192627 181.39068115 -432.6304248 180.82115723 -431.91796875 180.234375 C-431.2532959 179.68845703 -430.58862305 179.14253906 -429.90380859 178.58007812 C-428.66766761 177.55413501 -427.44076485 176.51691929 -426.22509766 175.46679688 C-422.20122407 172 -422.20122407 172 -420 172 C-420.00590778 172.60407621 -420.01181557 173.20815243 -420.01790237 173.83053398 C-420.15783293 188.56334611 -420.23091665 203.29545669 -420.23059464 218.02889824 C-420.23203271 225.15429729 -420.25567392 232.2783025 -420.33251953 239.40332031 C-420.39948232 245.61733485 -420.42383384 251.82984656 -420.39809489 258.04419339 C-420.38593604 261.33229259 -420.40073317 264.61660152 -420.4539566 267.90438461 C-421.40818842 282.11007405 -421.40818842 282.11007405 -416.41101074 294.78521729 C-413.58675964 297.45388184 -410.47567178 299.26354865 -407 301 C-404.525 302.485 -404.525 302.485 -402 304 C-402 259.12 -402 214.24 -402 168 C-397.78306275 171.61451765 -393.86305774 175.01792667 -390.00390625 178.93359375 C-389.11509766 179.83013672 -388.22628906 180.72667969 -387.31054688 181.65039062 C-385.48239411 183.50452992 -383.654269 185.35869647 -381.82617188 187.21289062 C-376.12883277 192.9616149 -376.12883277 192.9616149 -370.12109375 198.37890625 C-363.66237726 203.9094631 -357.81670212 210.12980083 -351.84521484 216.17529297 C-346.37877369 221.70335523 -340.9287114 227.16943295 -335.00683594 232.21582031 C-330.59502292 236.13814751 -326.51801374 240.42313663 -322.375 244.625 C-315.72415212 251.5208821 -315.72415212 251.5208821 -308.5390625 257.8359375 C-305.41825296 260.49582748 -303.31918312 262.77587976 -302.7172184 266.97046852 C-302.59058817 269.41401387 -302.56359239 271.84147465 -302.56762695 274.28833008 C-302.55233948 275.67930908 -302.55233948 275.67930908 -302.53674316 277.09838867 C-302.50661211 280.15549765 -302.49734694 283.21229328 -302.48828125 286.26953125 C-302.47143467 288.39231915 -302.45328446 290.51509707 -302.43388367 292.63786316 C-302.38637542 298.21911502 -302.35657125 303.80032642 -302.33044434 309.38171387 C-302.3006431 315.07942697 -302.25411122 320.77700069 -302.20898438 326.47460938 C-302.12294178 337.64966668 -302.05560062 348.82475267 -302 360 C-300.92105469 360.50015625 -299.84210938 361.0003125 -298.73046875 361.515625 C-298.12356201 361.79696289 -297.51665527 362.07830078 -296.89135742 362.36816406 C-292.62693283 363.79275821 -288.20737292 362.06330122 -284 361 C-284.00888245 359.84821259 -284.01776489 358.69642517 -284.0269165 357.50973511 C-284.10803038 346.6511444 -284.16797899 335.79261523 -284.20724869 324.93379021 C-284.22811644 319.35123942 -284.25641969 313.76893337 -284.30175781 308.18652344 C-284.34524388 302.79838788 -284.36914322 297.41048761 -284.37950897 292.02219009 C-284.38689533 289.96728944 -284.40131919 287.91240155 -284.42292023 285.85760117 C-284.45199056 282.97753906 -284.45595444 280.09844712 -284.45410156 277.21826172 C-284.46848267 276.37021469 -284.48286377 275.52216766 -284.49768066 274.64842224 C-284.45386145 268.34676115 -282.70954944 264.67539546 -278.140625 260.1640625 C-277.51671875 259.65617187 -276.8928125 259.14828125 -276.25 258.625 C-273.35955983 256.19488919 -270.64436209 253.69641646 -268 251 C-265.48044611 248.44130741 -262.91881218 246.01829389 -260.1875 243.6875 C-256.79804373 240.7774953 -253.63548893 237.67839675 -250.5 234.5 C-247.44663047 231.40507389 -244.37676245 228.38065663 -241.0625 225.5625 C-237.52320874 222.54647151 -234.26505855 219.30551776 -231 216 C-227.77602207 212.73617068 -224.56482126 209.53169836 -221.0625 206.5625 C-216.76905738 202.91441827 -212.8527289 198.90792489 -208.91821289 194.88110352 C-206.10490458 192.0224263 -203.23555901 189.30420594 -200.19140625 186.69140625 C-195.36014983 182.51680301 -190.91422536 177.98568147 -186.4375 173.4375 C-175.68569338 162.51489423 -175.68569338 162.51489423 -170 158 C-169.34 158 -168.68 158 -168 158 C-167.67 203.21 -167.34 248.42 -167 295 C-163.04 292.03 -159.08 289.06 -155 286 C-153.68 285.01 -152.36 284.02 -151 283 C-150.57066473 280.18991339 -150.40246957 277.75818962 -150.40161133 274.94091797 C-150.38591536 274.11329578 -150.37021938 273.2856736 -150.35404778 272.43297195 C-150.30669812 269.66096627 -150.28804739 266.88952477 -150.26953125 264.1171875 C-150.24213451 262.14572024 -150.2131962 260.17427388 -150.18281555 258.20285034 C-150.09212242 251.80205841 -150.0436841 245.40126005 -150 239 C-149.98361461 236.83841904 -149.96715562 234.67683863 -149.95062256 232.51525879 C-149.86964875 221.51807634 -149.80956242 210.5207639 -149.75195312 199.5234375 C-149.74607618 198.42518772 -149.74019924 197.32693794 -149.73414421 196.19540787 C-149.70508724 190.52609433 -149.68361919 184.85688168 -149.67407227 179.1875 C-149.66401231 173.56693803 -149.63482861 167.94676098 -149.59275246 162.32635117 C-149.58050327 160.21569591 -149.57530998 158.10498663 -149.57755089 155.99429703 C-149.57989689 153.08056616 -149.55782268 150.16797162 -149.5300293 147.25439453 C-149.53663071 146.40066757 -149.54323212 145.54694061 -149.55003357 144.66734314 C-149.44441926 137.93716075 -147.05763216 133.78146551 -142.265625 129.03515625 C-141.77819824 128.54893799 -141.29077148 128.06271973 -140.78857422 127.56176758 C-140.28084473 127.06700928 -139.77311523 126.57225098 -139.25 126.0625 C-138.71777832 125.53744873 -138.18555664 125.01239746 -137.63720703 124.47143555 C-134.18357591 121.08834001 -130.64931332 117.8281352 -126.97265625 114.6875 C-117.83640588 106.87193533 -109.09624797 98.58015721 -100.28125 90.40625 C-94.68713778 85.2189823 -89.09779774 80.04126357 -83.3125 75.06640625 C-81.25786575 73.23042396 -79.25078169 71.35900225 -77.25 69.46484375 C-76.57308105 68.82530762 -75.89616211 68.18577148 -75.19873047 67.52685547 C-73.82905885 66.22942459 -72.46340727 64.92773507 -71.10205078 63.62158203 C-70.47282715 63.02587402 -69.84360352 62.43016602 -69.1953125 61.81640625 C-68.34477295 61.00345093 -68.34477295 61.00345093 -67.47705078 60.17407227 C-66 59 -66 59 -64 59 C-63.86340309 74.5972657 -64.07431213 90.15986328 -64.5 105.75 C-65.12794786 128.83338484 -65.1004457 151.90985163 -65 175 C-46.8844656 132.07587856 -37.7072953 90.07298178 -36.4375 43.5 C-36.39412653 41.98306585 -36.35050769 40.4661387 -36.30664062 38.94921875 C-36.20161634 35.29955491 -36.09984964 31.64980953 -36 28 C-33.74370103 29.09252371 -31.74608279 30.17842831 -29.6875 31.625 C-25.2462876 33.89724821 -21.44383568 33.32690619 -16.6875 32.25 C-13.51887804 30.77622234 -13.36939033 30.07975334 -12 27 C-11.64421875 26.33484375 -11.2884375 25.6696875 -10.921875 24.984375 C-7.74058085 18.91870749 -5.28921492 12.7015673 -2.96777344 6.27050781 C-1.09156049 1.09156049 -1.09156049 1.09156049 0 0 Z " fill="#264178" transform="translate(805,439)"/>
<path d="M0 0 C0.66 0.66 1.32 1.32 2 2 C1.65578232 7.35996095 -0.43425059 12.17689097 -2.375 17.125 C-2.73094238 18.04547119 -3.08688477 18.96594238 -3.45361328 19.91430664 C-4.62871293 22.94566113 -5.81320921 25.97320493 -7 29 C-7.38414062 29.98178223 -7.76828125 30.96356445 -8.1640625 31.97509766 C-9.84232362 36.26174888 -11.52386564 40.54707095 -13.21264648 44.82958984 C-15.94559216 51.75997303 -18.66289928 58.69611663 -21.36193848 65.63978577 C-22.98009706 69.8025016 -24.60106047 73.96412345 -26.22198486 78.12576294 C-27.02715516 80.19529117 -27.83100581 82.26533334 -28.63348389 84.33590698 C-29.77169218 87.27218581 -30.91468845 90.20656175 -32.05859375 93.140625 C-32.39677628 94.016689 -32.7349588 94.89275299 -33.08338928 95.79536438 C-38.7857669 110.37731636 -38.7857669 110.37731636 -42.4375 112.25 C-48.11837263 111.69576852 -51.42305285 106.51543286 -54.86328125 102.390625 C-55.42595703 101.70226562 -55.42595703 101.70226562 -56 101 C-59.92788231 102.58838403 -62.55343678 105.29662054 -65.46484375 108.26953125 C-65.98003067 108.78754807 -66.49521759 109.30556488 -67.02601624 109.83927917 C-68.6679495 111.49236715 -70.30280019 113.15226177 -71.9375 114.8125 C-73.03273809 115.91777871 -74.12843671 117.02260128 -75.22460938 118.12695312 C-77.2501893 120.16881385 -79.27298942 122.21334469 -81.29272461 124.26098633 C-83.85221137 126.8504788 -86.424385 129.42656117 -89 132 C-90.12640096 133.13100613 -91.25242899 134.26238376 -92.37817383 135.39404297 C-95.78621307 138.81998412 -99.19738478 142.24278823 -102.60961914 145.66455078 C-104.07373997 147.13370184 -105.53696221 148.60374897 -106.99926758 150.07470703 C-109.12860989 152.21628556 -111.26126016 154.35452332 -113.39453125 156.4921875 C-114.03751663 157.14033417 -114.68050201 157.78848083 -115.3429718 158.45626831 C-119.14613439 162.25989131 -123.07202886 165.85016301 -127.14213562 169.36575317 C-129.71996979 171.63331229 -132.11924852 174.02461231 -134.53125 176.46875 C-135.01146606 176.95275269 -135.49168213 177.43675537 -135.9864502 177.9354248 C-137.49349407 179.45447309 -138.99718686 180.97676688 -140.5 182.5 C-146.20294878 188.28043951 -151.88156921 194.0041381 -158.06054688 199.28320312 C-161.88576524 202.66927255 -165.41989953 206.35880566 -169 210 C-173.86652389 214.94957037 -178.77046069 219.73330186 -184.03515625 224.2578125 C-187.51574483 227.34398051 -190.74398669 230.68039267 -194 234 C-198.57111236 238.66039189 -203.21321251 243.11982793 -208.16113281 247.37939453 C-211.60313292 250.41285135 -214.71778442 253.75485038 -217.8984375 257.05859375 C-220 259 -220 259 -222 259 C-222 259.66 -222 260.32 -222 261 C-223.29296875 262.26953125 -223.29296875 262.26953125 -225.1875 263.8125 C-229.169768 267.18646419 -232.83902695 270.78730039 -236.5 274.5 C-240.5512509 278.59860018 -244.64610838 282.53132985 -249.04296875 286.26171875 C-252.36632082 289.21359834 -255.4318735 292.42492394 -258.5546875 295.5859375 C-261.29463751 298.29087218 -264.15622465 300.79738354 -267.08203125 303.296875 C-269.08713907 305.07737808 -270.94523879 306.95092556 -272.8125 308.875 C-276.67387429 312.79670826 -280.8488632 316.20247328 -285.140625 319.640625 C-288.04913321 322.04054161 -290.80463497 324.55410887 -293.5625 327.125 C-306.71143321 339.11263142 -306.71143321 339.11263142 -312.9375 340.125 C-318.77510542 339.5943086 -322.80491003 333.60605934 -326.48356247 329.56196594 C-328.11108009 327.88558493 -329.82555506 326.39147284 -331.60675049 324.87963867 C-336.36226045 320.74808657 -340.77670952 316.31952504 -345.19824219 311.8359375 C-346.08056015 310.9457341 -346.96287811 310.0555307 -347.87193298 309.13835144 C-349.77444574 307.21872829 -351.67605267 305.29824977 -353.57640839 303.37649536 C-356.58122602 300.33882098 -359.59220461 297.30730377 -362.60455322 294.27709961 C-363.63908044 293.23631326 -364.67360726 292.19552651 -365.7081337 291.15473938 C-366.22567986 290.63407709 -366.74322602 290.1134148 -367.2764554 289.57697487 C-374.27827177 282.53223329 -381.27533614 275.48286536 -388.25830078 268.41943359 C-392.98526244 263.6380979 -397.7209739 258.8656233 -402.46700978 254.10321808 C-404.97438225 251.58646123 -407.47693662 249.06528997 -409.96877289 246.53314209 C-412.73891223 243.71830104 -415.52814945 240.92288664 -418.31933594 238.12890625 C-419.14330368 237.28539108 -419.96727142 236.44187592 -420.81620789 235.57279968 C-421.57583328 234.81860245 -422.33545868 234.06440521 -423.11810303 233.28735352 C-423.7750906 232.62445816 -424.43207817 231.96156281 -425.10897446 231.27857971 C-426.9057651 229.77901559 -426.9057651 229.77901559 -429.05975723 230.15293884 C-432.27691845 231.55747045 -434.7189699 233.93783148 -437.3125 236.25 C-437.92424072 236.7850415 -438.53598145 237.32008301 -439.16625977 237.87133789 C-440.46184072 239.00478586 -441.75500199 240.14100481 -443.04589844 241.27978516 C-445.54418608 243.47905237 -448.06152398 245.65575492 -450.57983398 247.83203125 C-455.02723442 251.67565134 -459.46383523 255.53167412 -463.89453125 259.39453125 C-469.45413116 264.23579133 -475.01560552 269.05274082 -480.75 273.6875 C-485.4190892 277.46559437 -489.83611324 281.46828014 -494.25390625 285.53515625 C-496.91875166 287.92707297 -499.64831825 290.19254884 -502.4375 292.4375 C-506.43231542 295.65949196 -510.24486548 299.00721712 -514 302.5 C-535.77995338 322.69812978 -535.77995338 322.69812978 -544.6875 324.5625 C-552.27454566 323.27413376 -557.55047136 312.71783473 -561.8125 306.75 C-562.38419922 305.96109375 -562.95589844 305.1721875 -563.54492188 304.359375 C-570.00631883 295.36960533 -570.00631883 295.36960533 -569.984375 290.61328125 C-568.77741409 286.18296837 -566.64190433 284.05708611 -563.25 281.1875 C-562.66798828 280.67324463 -562.08597656 280.15898926 -561.48632812 279.62915039 C-557.09949555 275.80365766 -552.53380405 272.22076193 -547.88452148 268.72167969 C-538.99496814 262.02943884 -530.68396454 254.65843625 -522.45703125 247.17578125 C-519.88148776 244.89505355 -517.23874773 242.72393912 -514.5625 240.5625 C-509.78715598 236.70058325 -505.26332315 232.62325776 -500.74609375 228.46484375 C-498.08124834 226.07292703 -495.35168175 223.80745116 -492.5625 221.5625 C-487.43252873 217.42188033 -482.595352 213.0273268 -477.76171875 208.55078125 C-474.23507474 205.29349901 -470.63796269 202.13181136 -467 199 C-466.49742676 198.56574707 -465.99485352 198.13149414 -465.47705078 197.68408203 C-461.90671379 194.60009398 -458.32508855 191.52986048 -454.73095703 188.47363281 C-453.62570619 187.53268866 -452.52232002 186.58954686 -451.42138672 185.64355469 C-437.32161423 173.54745843 -437.32161423 173.54745843 -427.46875 173.56640625 C-420.62931474 174.76763618 -415.65253554 177.56897702 -410.5625 182.1875 C-409.9754126 182.70505859 -409.3883252 183.22261719 -408.78344727 183.75585938 C-402.42948329 189.4053026 -396.26213457 195.26278377 -390.09765625 201.1171875 C-386.55178843 204.48456928 -382.97522722 207.81589778 -379.375 211.125 C-372.85540406 217.12355642 -366.37958075 223.16831937 -359.90722656 229.21777344 C-356.15218964 232.72670451 -352.39439141 236.232679 -348.63647461 239.73852539 C-345.44651283 242.71490532 -342.25860093 245.69343174 -339.07421875 248.67578125 C-326.9765564 260.35863328 -326.9765564 260.35863328 -314 271 C-313.17757813 270.23816406 -312.35515625 269.47632813 -311.5078125 268.69140625 C-303.46114673 261.24536444 -295.40273943 253.81490509 -287.125 246.625 C-283.81808349 243.74798263 -280.59294561 240.7880549 -277.375 237.8125 C-273.04333524 233.81149668 -268.62338975 229.93721596 -264.125 226.125 C-258.55375542 221.39980506 -253.16871509 216.50664752 -247.83740234 211.51318359 C-244.25751328 208.16091166 -240.63480889 204.87705725 -236.921875 201.671875 C-234.58894926 199.64241927 -232.29488755 197.572353 -230 195.5 C-227.04130249 192.82951656 -224.07073528 190.17701942 -221.0625 187.5625 C-217.83440488 184.75177475 -214.66261557 181.884201 -211.5 179 C-207.71337002 175.54671847 -203.8952368 172.13900949 -200.02734375 168.77734375 C-197.66510827 166.70640513 -195.33204147 164.60487152 -193 162.5 C-189.38323655 159.23609152 -185.73610392 156.01209051 -182.0625 152.8125 C-179.69035571 150.72788836 -177.34443935 148.61571356 -175 146.5 C-171.38323655 143.23609152 -167.73610392 140.01209051 -164.0625 136.8125 C-161.69035571 134.72788836 -159.34443935 132.61571356 -157 130.5 C-153.38323655 127.23609152 -149.73610392 124.01209051 -146.0625 120.8125 C-142.82348414 117.96609213 -139.63036144 115.06904969 -136.4296875 112.1796875 C-134.3439382 110.30854906 -132.24182372 108.46075169 -130.125 106.625 C-125.71250026 102.78416014 -121.4213747 98.81322663 -117.125 94.84375 C-114.84031339 92.74363576 -112.50760381 90.70865965 -110.15625 88.68359375 C-105.74052024 84.83454931 -101.61568464 80.72772529 -97.5 76.5625 C-96.77296875 75.83095703 -96.0459375 75.09941406 -95.296875 74.34570312 C-93.52890501 72.56610176 -91.76333622 70.78419082 -90 69 C-92.23323947 64.14693741 -95.85499878 61.27719622 -99.78515625 57.73046875 C-102.52837026 54.34862291 -103.15359094 52.34513715 -103 48 C-99.30426056 43.67251023 -93.34342538 41.60744493 -88.25 39.25 C-86.17395622 38.27324614 -84.09846828 37.29531029 -82.0234375 36.31640625 C-80.89776367 35.7867627 -79.77208984 35.25711914 -78.61230469 34.71142578 C-72.71302944 31.91648664 -66.84329332 29.061108 -60.97247314 26.20700073 C-57.46178306 24.5005898 -53.94952283 22.79741577 -50.4375 21.09375 C-49.02864198 20.41016419 -47.61978781 19.72657045 -46.2109375 19.04296875 C-40.06334568 16.06033268 -33.91564239 13.0779449 -27.76470947 10.10220337 C-26.52106171 9.50022258 -25.27768654 8.89767827 -24.03460693 8.29452515 C-5.59677777 -0.65078811 -5.59677777 -0.65078811 0 0 Z " fill="#2EAA7D" transform="translate(825,344)"/>
<path d="M0 0 C2.99028219 1.49005805 5.76375308 3.24227256 8.5625 5.0625 C10.18154165 6.07932021 11.80133906 7.09493799 13.421875 8.109375 C14.60426758 8.85670898 14.60426758 8.85670898 15.81054688 9.61914062 C38.96083285 24.21972241 64.26703667 34.91274664 90 44 C91.12615723 44.40057617 92.25231445 44.80115234 93.41259766 45.21386719 C127.49249988 57.23973523 163.30568966 66.39719188 199.26074219 70.67016602 C201.37801335 70.9251066 203.49283977 71.20039949 205.60644531 71.48413086 C218.18746788 73.13008909 230.75760191 73.61551303 243.43066406 74.02905273 C273.21028306 75.03020129 273.21028306 75.03020129 279.26025391 79.77124023 C283.51695132 84.49325247 284.17749679 88.42741134 284.31640625 94.65234375 C284.33741394 95.44365692 284.35842163 96.23497009 284.38006592 97.05026245 C284.44723181 99.67923223 284.50592432 102.30828186 284.5625 104.9375 C284.59227432 106.28417252 284.59227432 106.28417252 284.62265015 107.65805054 C284.74757192 113.43247493 284.85431785 119.20707525 284.94995117 124.98205566 C284.98344695 127.00185083 285.01812398 129.02162674 285.05395508 131.04138184 C285.1587208 137.01278857 285.23929573 142.98368904 285.28610229 148.95584106 C285.30366611 150.85653035 285.3279927 152.75716946 285.35916138 154.65768433 C285.40078865 157.32022101 285.41663473 159.98171138 285.42578125 162.64453125 C285.44324402 163.43439423 285.46070679 164.2242572 285.47869873 165.03805542 C285.46505793 168.49390078 285.3175998 170.56646301 283.24707031 173.39282227 C281.06333591 174.9547001 279.10683325 176.06700787 276.62109375 177.0703125 C275.78126953 177.40933594 274.94144531 177.74835938 274.07617188 178.09765625 C273.20541016 178.43667969 272.33464844 178.77570313 271.4375 179.125 C270.59380859 179.47175781 269.75011719 179.81851563 268.88085938 180.17578125 C267.60758789 180.68044922 267.60758789 180.68044922 266.30859375 181.1953125 C265.17635376 181.64414795 265.17635376 181.64414795 264.02124023 182.10205078 C259.44649137 183.4617216 254.69554756 184.14626408 250 185 C249.67 160.58 249.34 136.16 249 111 C241.41 110.34 233.82 109.68 226 109 C220.65848412 108.42947428 215.33046124 107.84214195 210 107.1875 C209.317099 107.10385193 208.634198 107.02020386 207.93060303 106.934021 C183.35507581 103.90423864 159.09627271 99.74689668 135 94 C134.1951416 93.81050781 133.3902832 93.62101562 132.56103516 93.42578125 C122.96904727 91.15831288 113.52405597 88.45648708 104.08837891 85.61914062 C101.47783033 84.84519263 98.8553106 84.1151221 96.23413086 83.37817383 C73.78850799 76.97894801 52.14754782 68.84843344 31 59 C30.0296582 58.55060059 29.05931641 58.10120117 28.05957031 57.63818359 C9.31176062 48.92819781 9.31176062 48.92819781 1.44921875 43.9609375 C-3.42074481 42.05023409 -7.06337093 42.2025349 -11.81860352 44.16064453 C-15.13463052 45.82140417 -18.38042471 47.57869853 -21.625 49.375 C-24.04979155 50.67851495 -26.48194589 51.96802796 -28.9140625 53.2578125 C-29.82227753 53.74199646 -29.82227753 53.74199646 -30.74884033 54.23596191 C-48.16335586 63.49178015 -66.43670446 70.43191906 -85 77 C-85.96534668 77.34772461 -86.93069336 77.69544922 -87.92529297 78.05371094 C-126.39600059 91.8581833 -167.3391271 101.13147169 -207.8125 106.5625 C-208.60705597 106.67016693 -209.40161194 106.77783386 -210.22024536 106.88876343 C-226.71456739 109.10929167 -243.33685861 111.03823896 -260 111 C-260.00938826 140.18048468 -259.98766695 169.36081415 -259.92420971 198.54123406 C-259.91669621 202.00852733 -259.90944024 205.47582109 -259.90234375 208.94311523 C-259.900927 209.63321361 -259.89951025 210.32331198 -259.89805056 211.03432242 C-259.87590437 222.11884485 -259.87448351 233.20327367 -259.88111137 244.28781202 C-259.88746722 255.71363948 -259.87021407 267.13923978 -259.83356392 278.56501418 C-259.81376097 284.96083939 -259.80376425 291.35629743 -259.81957626 297.75214195 C-259.90730641 337.50512611 -258.45794032 376.7736989 -242.74023438 413.94458008 C-241.21707819 417.67924188 -240.47372822 420.18432056 -242 424 C-243.72265625 425.81640625 -243.72265625 425.81640625 -246.0625 427.5625 C-246.95066406 428.23410156 -247.83882813 428.90570312 -248.75390625 429.59765625 C-249.25937988 429.97035645 -249.76485352 430.34305664 -250.28564453 430.72705078 C-252.25783465 432.19144829 -254.20485464 433.68651414 -256.15234375 435.18359375 C-257.6009532 436.28986081 -259.05017201 437.39533039 -260.5 438.5 C-261.20648682 439.04084229 -261.91297363 439.58168457 -262.64086914 440.13891602 C-263.63848267 440.88999634 -263.63848267 440.88999634 -264.65625 441.65625 C-265.25244141 442.10806641 -265.84863281 442.55988281 -266.46289062 443.02539062 C-268 444 -268 444 -270 444 C-288.26430643 400.96229921 -296.09208156 357.7007014 -296.20874023 311.14013672 C-296.21829932 308.67611058 -296.22819131 306.21208572 -296.23838806 303.74806213 C-296.26680745 296.4165498 -296.286783 289.0850318 -296.30378041 281.75348634 C-296.30859333 279.67986835 -296.31357414 277.60625082 -296.31858563 275.5326333 C-296.34951655 262.61758039 -296.3761552 249.70252257 -296.39300442 236.78744316 C-296.39695276 233.81272244 -296.400956 230.8380018 -296.4050293 227.86328125 C-296.40603766 227.12408664 -296.40704602 226.38489203 -296.40808494 225.62329759 C-296.42514461 213.61096659 -296.46633863 201.5988396 -296.51705229 189.58660851 C-296.56881931 177.22257154 -296.59794292 164.85863994 -296.6052013 152.49449551 C-296.60985829 145.5644078 -296.62455899 138.63465749 -296.6649456 131.70467758 C-296.70282056 125.19884789 -296.71024869 118.69348968 -296.69693947 112.18752861 C-296.69699352 109.80062109 -296.70733237 107.4136884 -296.7286911 105.02687645 C-296.75628721 101.7693226 -296.74690128 98.51388713 -296.72825623 95.25631714 C-296.74505115 94.31167504 -296.76184608 93.36703295 -296.77914995 92.39376533 C-296.69626482 86.60251756 -295.57949921 83.50103717 -291.57986599 79.2683326 C-288.11900078 76.48991456 -284.23756284 76.78104196 -279.984375 76.60546875 C-278.51087536 76.53939342 -277.03740654 76.47262845 -275.56396484 76.40527344 C-274.78156433 76.37042847 -273.99916382 76.3355835 -273.1930542 76.29968262 C-240.44163175 74.7957699 -208.20341845 71.1424477 -176 65 C-174.9898584 64.80905762 -173.9797168 64.61811523 -172.93896484 64.42138672 C-162.34127173 62.39049655 -151.95801757 59.78377612 -141.60302734 56.75683594 C-138.72496037 55.92003162 -135.84105694 55.10508352 -132.95703125 54.2890625 C-101.51619627 45.29420881 -70.95005518 34.12820661 -41.90234375 18.99023438 C-39.87758518 17.93627894 -37.84512665 16.89806587 -35.8125 15.859375 C-29.94304644 12.8294643 -24.14261037 9.80293755 -18.6171875 6.171875 C-17.90498047 5.70571777 -17.19277344 5.23956055 -16.45898438 4.75927734 C-15.10686977 3.86114124 -13.76606791 2.94564451 -12.43945312 2.01025391 C-7.9722823 -0.97060587 -5.36691222 -1.63646832 0 0 Z " fill="#5BA3DE" transform="translate(517,160)"/>
<path d="M0 0 C4.21693725 3.61451765 8.13694226 7.01792667 11.99609375 10.93359375 C12.88490234 11.83013672 13.77371094 12.72667969 14.68945312 13.65039062 C16.51760589 15.50452992 18.345731 17.35869647 20.17382812 19.21289062 C25.87116723 24.9616149 25.87116723 24.9616149 31.87890625 30.37890625 C38.33762274 35.9094631 44.18329788 42.12980083 50.15478516 48.17529297 C55.62122631 53.70335523 61.0712886 59.16943295 66.99316406 64.21582031 C71.40497708 68.13814751 75.48198626 72.42313663 79.625 76.625 C86.27584788 83.5208821 86.27584788 83.5208821 93.4609375 89.8359375 C96.58174704 92.49582748 98.68081688 94.77587976 99.2827816 98.97046852 C99.40941183 101.41401387 99.43640761 103.84147465 99.43237305 106.28833008 C99.44766052 107.67930908 99.44766052 107.67930908 99.46325684 109.09838867 C99.49338789 112.15549765 99.50265306 115.21229328 99.51171875 118.26953125 C99.52856533 120.39231915 99.54671554 122.51509707 99.56611633 124.63786316 C99.61362458 130.21911502 99.64342875 135.80032642 99.66955566 141.38171387 C99.6993569 147.07942697 99.74588878 152.77700069 99.79101562 158.47460938 C99.87705822 169.64966668 99.94439938 180.82475267 100 192 C103.3 193.32 106.6 194.64 110 196 C109.67 207.88 109.34 219.76 109 232 C98.86673509 230.87408168 98.86673509 230.87408168 93.6484375 228.5859375 C92.48328613 228.08006104 91.31813477 227.57418457 90.11767578 227.05297852 C88.86970786 226.49456624 87.62216038 225.93521352 86.375 225.375 C85.055941 224.79132719 83.73676532 224.207918 82.41748047 223.62475586 C59.21056983 213.30865609 36.70049787 202.23975055 15 189 C13.16177327 187.89661056 11.3232347 186.79374047 9.484375 185.69140625 C-1.34784712 179.14626581 -11.73100905 172.1472496 -21.87548828 164.58203125 C-23.96997883 163.02235546 -26.07543376 161.47863082 -28.18359375 159.9375 C-36.62905158 153.72840343 -44.69169554 147.18550082 -52.56201172 140.26318359 C-53.76550206 139.20599191 -54.97745679 138.1584463 -56.19140625 137.11328125 C-58.14582946 135.42815226 -60.07691455 133.72084214 -62 132 C-62.47791992 131.57251465 -62.95583984 131.1450293 -63.44824219 130.70458984 C-70.74368398 124.15199699 -77.60346977 117.44994862 -84 110 C-84.94355057 108.91886933 -85.88758991 107.8381651 -86.83203125 106.7578125 C-89.92615597 103.20357441 -92.96827044 99.60748265 -96 96 C-96.53608887 95.36884277 -97.07217773 94.73768555 -97.62451172 94.08740234 C-99.20422167 92.21753187 -100.7609496 90.3307639 -102.3125 88.4375 C-102.79895996 87.86612305 -103.28541992 87.29474609 -103.78662109 86.70605469 C-105.83594076 84.16118736 -107.00636823 82.6286349 -106.97265625 79.30078125 C-104.08130768 72.46140651 -96.42421231 67.8262686 -90.8125 63.3125 C-88.19034106 61.15650265 -85.68391432 58.92432897 -83.1875 56.625 C-78.69727264 52.52739983 -73.98202439 48.80789015 -69.17919922 45.09082031 C-64.73676157 41.63222952 -60.54781833 37.96711244 -56.3984375 34.16015625 C-52.61658367 30.75402406 -48.65319084 27.57979447 -44.69726562 24.37939453 C-41.17959683 21.52052964 -37.68555184 18.63280338 -34.1875 15.75 C-33.47005615 15.15936768 -32.7526123 14.56873535 -32.01342773 13.96020508 C-31.32192627 13.39068115 -30.6304248 12.82115723 -29.91796875 12.234375 C-29.2532959 11.68845703 -28.58862305 11.14253906 -27.90380859 10.58007812 C-26.66766761 9.55413501 -25.44076485 8.51691929 -24.22509766 7.46679688 C-20.20122407 4 -20.20122407 4 -18 4 C-18.00590778 4.60407621 -18.01181557 5.20815243 -18.01790237 5.83053398 C-18.15783293 20.56334611 -18.23091665 35.29545669 -18.23059464 50.02889824 C-18.23203271 57.15429729 -18.25567392 64.2783025 -18.33251953 71.40332031 C-18.39948232 77.61733485 -18.42383384 83.82984656 -18.39809489 90.04419339 C-18.38593604 93.33229259 -18.40073317 96.61660152 -18.4539566 99.90438461 C-19.40818842 114.11007405 -19.40818842 114.11007405 -14.41101074 126.78521729 C-11.58675964 129.45388184 -8.47567178 131.26354865 -5 133 C-3.35 133.99 -1.7 134.98 0 136 C0 91.12 0 46.24 0 0 Z " fill="#4991D2" transform="translate(403,607)"/>
<path d="M0 0 C2.54199175 2.61932446 3.87694676 4.2243015 4.45410156 7.86254883 C4.4331543 8.88372803 4.41220703 9.90490723 4.390625 10.95703125 C4.37773438 12.06884766 4.36484375 13.18066406 4.3515625 14.32617188 C4.31804687 15.47666016 4.28453125 16.62714844 4.25 17.8125 C4.23195313 18.98232422 4.21390625 20.15214844 4.1953125 21.35742188 C4.1482644 24.2391178 4.08253709 27.11913797 4 30 C5.27617188 30.11214844 6.55234375 30.22429687 7.8671875 30.33984375 C23.41659037 32.08679698 43.57178202 37.63921318 54 50 C55.29365817 54.47557517 54.3122705 58.91003834 52.375 63.0625 C45.85014273 74.60825808 45.85014273 74.60825808 40 77 C33.73294751 77.28897499 28.2320775 75.16447275 22.625 72.625 C7.87923025 66.25011348 -10.09415145 61.48626828 -26.125 66.0625 C-31.35217216 68.2276009 -36.19073095 72.11574317 -39.203125 76.91796875 C-41.09030647 81.84869288 -40.52349674 87.29863558 -39 92.25 C-29.62999758 105.13375332 -10.67257179 107.70026582 3.79122925 111.45056152 C26.75001726 117.42015163 49.3747372 124.01340138 62.625 145.2265625 C65.94262553 151.918364 66.31268444 158.06181582 66.25 165.375 C66.25773438 166.26960937 66.26546875 167.16421875 66.2734375 168.0859375 C66.23694806 180.63830615 62.65478203 192.91352911 53.87890625 202.28515625 C40.71047699 214.30374345 25.65840131 220.75908613 8 223 C8.02094727 223.62455078 8.04189453 224.24910156 8.06347656 224.89257812 C8.14735844 227.7615506 8.19888511 230.63026408 8.25 233.5 C8.28351563 234.48226562 8.31703125 235.46453125 8.3515625 236.4765625 C8.43515953 242.74633958 7.8910455 247.88114231 4 253 C-1.29273882 256.38735284 -6.80175101 256.93076016 -13 256 C-16.95222679 253.98795727 -19.72762595 251.82715629 -22 248 C-22.95519813 244.9509189 -23.11708156 242.20137608 -23.09765625 239.015625 C-23.09443359 238.08105469 -23.09121094 237.14648438 -23.08789062 236.18359375 C-23.07532227 234.73146484 -23.07532227 234.73146484 -23.0625 233.25 C-23.05798828 232.26644531 -23.05347656 231.28289062 -23.04882812 230.26953125 C-23.03706483 227.84629209 -23.02062684 225.42317727 -23 223 C-24.47146484 223.05027344 -24.47146484 223.05027344 -25.97265625 223.1015625 C-30.26997476 223.09509226 -34.25907755 222.32584433 -38.4375 221.375 C-39.2217334 221.19678711 -40.0059668 221.01857422 -40.81396484 220.83496094 C-52.0171086 218.1678681 -62.44866855 213.911198 -72.8125 208.9375 C-73.48877441 208.62135742 -74.16504883 208.30521484 -74.86181641 207.97949219 C-78.90584884 205.96109873 -81.41887634 204.30590595 -83 200 C-82.83031549 194.73372017 -81.24827796 190.90172799 -78.75 186.3125 C-77.87601562 184.66701172 -77.87601562 184.66701172 -76.984375 182.98828125 C-74.55582574 179.33111553 -71.92419116 176.96209558 -68 175 C-60.26959049 174.15618769 -54.31306883 176.8871852 -47.25 179.8125 C-27.94607014 187.71673764 -8.5302733 192.5548463 12 186 C17.76922744 183.36193446 21.94300517 180.09070644 24.41015625 174.14453125 C25.84672902 168.92149514 25.81577918 164.73353076 23.5 159.8125 C13.09237868 148.10392602 -2.86849289 145.18588479 -17.46875 141.23828125 C-65.15608389 128.26298448 -65.15608389 128.26298448 -76.75 108.6875 C-82.90665822 96.55705459 -84.07028544 83.26253009 -80.4375 70.125 C-74.56194893 53.57415192 -62.5576821 43.20907615 -47.1875 35.609375 C-40.29327284 32.72241738 -33.48105873 30.94139156 -26 31 C-26.02618408 30.24380371 -26.05236816 29.48760742 -26.0793457 28.70849609 C-26.18362998 25.26421085 -26.24842772 21.82025823 -26.3125 18.375 C-26.35439453 17.18519531 -26.39628906 15.99539063 -26.43945312 14.76953125 C-26.57759215 4.87877711 -26.57759215 4.87877711 -23.62109375 1.25 C-16.59563142 -4.78079926 -7.90743435 -4.49638424 0 0 Z " fill="#28447C" transform="translate(521,268)"/>
<path d="M0 0 C0.42159853 17.89796213 0.73842284 35.79462631 0.93261909 53.69649029 C1.02521183 62.01004769 1.15127974 70.32051042 1.35791016 78.63208008 C1.53805631 85.88183134 1.65361068 93.12934155 1.69359291 100.3812688 C1.71695165 104.21809626 1.77126262 108.04851716 1.90314102 111.88327599 C2.67266228 135.14293923 2.67266228 135.14293923 -1.7640152 141.54574394 C-5.92212807 145.70279308 -10.60077424 148.49952583 -15.89586639 150.98707676 C-18.63505499 152.30571346 -21.04229064 153.98143685 -23.5 155.76171875 C-24.99576834 156.74345697 -26.49566499 157.71893969 -28 158.6875 C-28.82338867 159.21947998 -29.64677734 159.75145996 -30.49511719 160.29956055 C-43.82166149 168.81289161 -57.78929986 176.09283033 -72 183 C-72.93263672 183.45665039 -73.86527344 183.91330078 -74.82617188 184.38378906 C-77.98514732 185.92904952 -81.1482391 187.46559433 -84.3125 189 C-85.28324463 189.47421387 -86.25398926 189.94842773 -87.25415039 190.43701172 C-93.7325975 193.55883561 -100.28919369 196.4204813 -106.92260742 199.1953125 C-107.79831139 199.56277588 -108.67401535 199.93023926 -109.5762558 200.30883789 C-111.71705136 201.20697805 -113.85830574 202.10400549 -116 203 C-116.09271225 190.97799661 -116.16377146 178.95607839 -116.20724869 166.93379021 C-116.22811644 161.35123942 -116.25641969 155.76893337 -116.30175781 150.18652344 C-116.34524388 144.79838788 -116.36914322 139.41048761 -116.37950897 134.02219009 C-116.38689533 131.96728944 -116.40131919 129.91240155 -116.42292023 127.85760117 C-116.45199056 124.97753906 -116.45595444 122.09844712 -116.45410156 119.21826172 C-116.46848267 118.37021469 -116.48286377 117.52216766 -116.49768066 116.64842224 C-116.45386145 110.34676115 -114.70954944 106.67539546 -110.140625 102.1640625 C-109.51671875 101.65617188 -108.8928125 101.14828125 -108.25 100.625 C-105.35955983 98.19488919 -102.64436209 95.69641646 -100 93 C-97.48044611 90.44130741 -94.91881218 88.01829389 -92.1875 85.6875 C-88.79804373 82.7774953 -85.63548893 79.67839675 -82.5 76.5 C-79.44663047 73.40507389 -76.37676245 70.38065663 -73.0625 67.5625 C-69.52320874 64.54647151 -66.26505855 61.30551776 -63 58 C-59.77602207 54.73617068 -56.56482126 51.53169836 -53.0625 48.5625 C-48.76905738 44.91441827 -44.8527289 40.90792489 -40.91821289 36.88110352 C-38.10490458 34.0224263 -35.23555901 31.30420594 -32.19140625 28.69140625 C-27.36014983 24.51680301 -22.91422536 19.98568147 -18.4375 15.4375 C-3.24139953 0 -3.24139953 0 0 0 Z " fill="#4892D4" transform="translate(637,597)"/>
<path d="M0 0 C6.54285043 0.93469292 8.3486398 1.4811723 13.4375 5 C14.68264536 5.83280171 15.93012577 6.66212077 17.1796875 7.48828125 C18.13439941 8.1217749 18.13439941 8.1217749 19.10839844 8.76806641 C42.42849603 23.95562609 68.8736719 34.77383511 95 44 C96.12615723 44.40057617 97.25231445 44.80115234 98.41259766 45.21386719 C132.49249988 57.23973523 168.30568966 66.39719188 204.26074219 70.67016602 C206.37801335 70.9251066 208.49283977 71.20039949 210.60644531 71.48413086 C223.18746788 73.13008909 235.75760191 73.61551303 248.43066406 74.02905273 C278.21028306 75.03020129 278.21028306 75.03020129 284.26025391 79.77124023 C288.51695132 84.49325247 289.17749679 88.42741134 289.31640625 94.65234375 C289.33741394 95.44365692 289.35842163 96.23497009 289.38006592 97.05026245 C289.44723181 99.67923223 289.50592432 102.30828186 289.5625 104.9375 C289.59227432 106.28417252 289.59227432 106.28417252 289.62265015 107.65805054 C289.74757192 113.43247493 289.85431785 119.20707525 289.94995117 124.98205566 C289.98344695 127.00185083 290.01812398 129.02162674 290.05395508 131.04138184 C290.1587208 137.01278857 290.23929573 142.98368904 290.28610229 148.95584106 C290.30366611 150.85653035 290.3279927 152.75716946 290.35916138 154.65768433 C290.40078865 157.32022101 290.41663473 159.98171138 290.42578125 162.64453125 C290.44324402 163.43439423 290.46070679 164.2242572 290.47869873 165.03805542 C290.46505793 168.49390078 290.3175998 170.56646301 288.24707031 173.39282227 C286.06333591 174.9547001 284.10683325 176.06700787 281.62109375 177.0703125 C280.78126953 177.40933594 279.94144531 177.74835938 279.07617188 178.09765625 C278.20541016 178.43667969 277.33464844 178.77570313 276.4375 179.125 C275.59380859 179.47175781 274.75011719 179.81851563 273.88085938 180.17578125 C272.60758789 180.68044922 272.60758789 180.68044922 271.30859375 181.1953125 C270.17635376 181.64414795 270.17635376 181.64414795 269.02124023 182.10205078 C264.44649137 183.4617216 259.69554756 184.14626408 255 185 C254.67 160.58 254.34 136.16 254 111 C246.41 110.34 238.82 109.68 231 109 C225.65848412 108.42947428 220.33046124 107.84214195 215 107.1875 C213.9756485 107.06202789 213.9756485 107.06202789 212.93060303 106.934021 C188.35507581 103.90423864 164.09627271 99.74689668 140 94 C139.1951416 93.81050781 138.3902832 93.62101562 137.56103516 93.42578125 C127.96904727 91.15831288 118.52405597 88.45648708 109.08837891 85.61914062 C106.47783033 84.84519263 103.8553106 84.1151221 101.23413086 83.37817383 C78.78753231 76.97866985 57.14989057 68.84515007 36 59 C35.05092773 58.56123535 34.10185547 58.1224707 33.12402344 57.67041016 C30.36996736 56.39354696 27.62098149 55.10662972 24.875 53.8125 C24.09511719 53.44511719 23.31523438 53.07773438 22.51171875 52.69921875 C14.86286649 49.03494447 7.50688092 45.00366983 0 41 C0 27.47 0 13.94 0 0 Z " fill="#274278" transform="translate(512,160)"/>
<path d="M0 0 C0.10625485 12.13266919 0.09993664 24.25776134 -0.22265625 36.38671875 C-0.25477203 37.61226219 -0.25477203 37.61226219 -0.28753662 38.86256409 C-0.40340345 43.19857855 -0.53076012 47.53401091 -0.66845703 51.86938477 C-0.96602316 61.96044055 -0.96421946 71.98707093 -0.64453125 82.078125 C-0.56244311 85.40600753 -0.48478324 88.73396776 -0.40820312 92.0619812 C-0.34552062 94.19096756 -0.26088632 96.3194473 -0.15185547 98.44656372 C0.71650019 115.51407368 -3.4196982 125.99398807 -13 140 C-14.30720033 142.02334072 -15.59910726 144.05572817 -16.88938904 146.08987427 C-22.45167629 154.71732302 -28.73854285 162.87458307 -35 171 C-35.721875 171.9384375 -36.44375 172.876875 -37.1875 173.84375 C-41.4375273 179.25910737 -45.97567803 184.36111435 -50.640625 189.421875 C-52.57870227 191.53964156 -54.45541499 193.68694934 -56.3125 195.875 C-63.38143743 203.99925273 -71.18131824 211.69429878 -79.4140625 218.6328125 C-81.05203005 219.99764462 -81.05203005 219.99764462 -82.5859375 221.6796875 C-84 223 -84 223 -86 223 C-86.03646071 194.4255998 -86.01964642 165.85117821 -85.81609344 137.27737236 C-85.77599149 131.59904241 -85.74402996 125.92088808 -85.72900391 120.24243164 C-85.71388768 114.61651513 -85.67963603 108.99101903 -85.63169098 103.36528969 C-85.61694005 101.25185076 -85.60896263 99.13835253 -85.60811615 97.02486229 C-85.60575718 94.10619354 -85.57880233 91.18872547 -85.54589844 88.27026367 C-85.5509288 87.41496567 -85.55595917 86.55966766 -85.56114197 85.67845154 C-85.44346179 78.94610626 -83.06025203 74.7840604 -78.265625 70.03515625 C-77.53448486 69.30582886 -77.53448486 69.30582886 -76.78857422 68.56176758 C-76.28084473 68.06700928 -75.77311523 67.57225098 -75.25 67.0625 C-74.71777832 66.53744873 -74.18555664 66.01239746 -73.63720703 65.47143555 C-70.18357591 62.08834001 -66.64931332 58.8281352 -62.97265625 55.6875 C-53.83640588 47.87193533 -45.09624797 39.58015721 -36.28125 31.40625 C-30.68713778 26.2189823 -25.09779774 21.04126357 -19.3125 16.06640625 C-17.25786575 14.23042396 -15.25078169 12.35900225 -13.25 10.46484375 C-12.57308105 9.82530762 -11.89616211 9.18577148 -11.19873047 8.52685547 C-9.82905885 7.22942459 -8.46340727 5.92773507 -7.10205078 4.62158203 C-6.47282715 4.02587402 -5.84360352 3.43016602 -5.1953125 2.81640625 C-4.62828613 2.27443604 -4.06125977 1.73246582 -3.47705078 1.17407227 C-2 0 -2 0 0 0 Z " fill="#367BBF" transform="translate(741,498)"/>
<path d="M0 0 C1.11344822 0.94695967 2.22583664 1.89516554 3.33778381 2.84388733 C3.95735993 3.37178391 4.57693605 3.8996805 5.21528721 4.44357395 C7.58174083 6.50732902 9.79241718 8.6976453 11.99609375 10.93359375 C12.88490234 11.83013672 13.77371094 12.72667969 14.68945312 13.65039062 C16.51760589 15.50452992 18.345731 17.35869647 20.17382812 19.21289062 C25.87116723 24.9616149 25.87116723 24.9616149 31.87890625 30.37890625 C38.33762274 35.9094631 44.18329788 42.12980083 50.15478516 48.17529297 C55.62122631 53.70335523 61.0712886 59.16943295 66.99316406 64.21582031 C71.40497708 68.13814751 75.48198626 72.42313663 79.625 76.625 C86.27584788 83.5208821 86.27584788 83.5208821 93.4609375 89.8359375 C96.58024274 92.49454535 98.69772831 94.76760027 99.26680565 98.97046852 C99.36946303 101.41499615 99.37089506 103.84179953 99.34057617 106.28833008 C99.34123329 107.67930908 99.34123329 107.67930908 99.34190369 109.09838867 C99.33981795 112.15565227 99.31649675 115.21236374 99.29296875 118.26953125 C99.28737204 120.39230551 99.2831023 122.51508364 99.28010559 124.63786316 C99.26866278 130.21925596 99.23920024 135.80041377 99.20599365 141.38171387 C99.17528074 147.07931337 99.16159763 152.77695092 99.14648438 158.47460938 C99.11433018 169.6498427 99.06314046 180.8249018 99 192 C95.83272631 190.58103996 92.66640861 189.15995855 89.50024414 187.73852539 C88.61340187 187.34124489 87.7265596 186.94396439 86.81284332 186.53464508 C78.93948083 182.9978453 71.15694798 179.29857333 63.4375 175.4375 C62.76732849 175.102948 62.09715698 174.768396 61.40667725 174.42370605 C13.33206136 150.33206136 13.33206136 150.33206136 0 137 C-0.24609566 134.61432457 -0.24609566 134.61432457 -0.24050903 131.55844116 C-0.24463303 129.82520851 -0.24463303 129.82520851 -0.24884033 128.05696106 C-0.24164978 126.78310043 -0.23445923 125.50923981 -0.22705078 124.19677734 C-0.22648686 122.84674589 -0.22680286 121.49671383 -0.22793579 120.14668274 C-0.22851105 116.47537724 -0.21672892 112.80420169 -0.20278788 109.13292646 C-0.1903092 105.29855471 -0.18911228 101.46418018 -0.18673706 97.62979126 C-0.18051385 90.36601415 -0.1640917 83.10229705 -0.14403808 75.8385464 C-0.1217052 67.57022562 -0.11069223 59.30190202 -0.10064721 51.03355861 C-0.07972617 34.02233766 -0.0445339 17.01117517 0 0 Z " fill="#75B9E9" transform="translate(403,607)"/>
<path d="M0 0 C0 39.27 0 78.54 0 119 C-4.82370351 115.38222237 -9.15326446 112.10155998 -13.5 108.0625 C-16.66981723 105.13718657 -19.84918244 102.24347919 -23.125 99.4375 C-30.32517306 93.1649566 -36.82495985 86.27061178 -43 79 C-44.2684375 77.53046875 -44.2684375 77.53046875 -45.5625 76.03125 C-50.23845043 70.59404104 -54.8389778 65.09247621 -59.25 59.4375 C-59.99765625 58.48746094 -60.7453125 57.53742187 -61.515625 56.55859375 C-63 54 -63 54 -63.1015625 51.984375 C-61.40103046 48.92100522 -58.81614625 46.97036886 -56.125 44.8125 C-55.53710693 44.32837646 -54.94921387 43.84425293 -54.34350586 43.34545898 C-52.56965233 41.88772354 -50.78610547 40.44268218 -49 39 C-47.18700457 37.52144062 -45.37446773 36.04231865 -43.5625 34.5625 C-42.67304688 33.83933594 -41.78359375 33.11617187 -40.8671875 32.37109375 C-37.59928468 29.66861826 -34.39374038 26.89999685 -31.1875 24.125 C-25.86539726 19.52380493 -20.41821307 15.12359029 -14.85522461 10.81762695 C-10.903802 7.74907119 -7.12191573 4.55012613 -3.453125 1.14453125 C-2 0 -2 0 0 0 Z " fill="#7EBEE9" transform="translate(385,611)"/>
<path d="M0 0 C0.33 0 0.66 0 1 0 C1.02564973 6.56127067 1.0429907 13.1225281 1.05493164 19.68383789 C1.05991707 21.90942874 1.06670781 24.1350164 1.07543945 26.3605957 C1.12227012 38.61645571 1.10002409 50.78564012 0 63 C-0.33 63 -0.66 63 -1 63 C-1.33 46.17 -1.66 29.34 -2 12 C-2.99 12.495 -2.99 12.495 -4 13 C-3.40895235 8.15340923 -2.02055843 4.39251833 0 0 Z " fill="#394F7E" transform="translate(805,439)"/>
<path d="M0 0 C0 1.65 0 3.3 0 5 C-0.66 4.34 -1.32 3.68 -2 3 C-2.845625 3.85722656 -3.69125 4.71445312 -4.5625 5.59765625 C-9.90465244 10.99030312 -15.21852314 16.3219436 -21.01171875 21.234375 C-25.1993131 24.9530246 -29.07776397 29.00542765 -33 33 C-33 29.39076653 -31.9739595 28.62450074 -29.52037048 26.15483093 C-28.7658535 25.41883415 -28.7658535 25.41883415 -27.99609375 24.66796875 C-27.47999039 24.15373856 -26.96388702 23.63950836 -26.43214417 23.10969543 C-25.3351194 22.01940107 -24.23449898 20.93271459 -23.13061523 19.84936523 C-21.46158953 18.21114491 -19.80313922 16.56282904 -18.14648438 14.91210938 C-3.12669202 0 -3.12669202 0 0 0 Z " fill="#3F86C7" transform="translate(637,597)"/>
<path d="M0 0 C0.66 0.33 1.32 0.66 2 1 C-0.61691164 3.67470955 -3.24481708 6.33834481 -5.875 9 C-6.62136719 9.763125 -7.36773438 10.52625 -8.13671875 11.3125 C-8.85214844 12.034375 -9.56757812 12.75625 -10.3046875 13.5 C-11.2944458 14.50546875 -11.2944458 14.50546875 -12.30419922 15.53125 C-14 17 -14 17 -16 17 C-14.88559348 13.65678045 -14.02527657 12.93980381 -11.375 10.75 C-7.36917659 7.35878848 -3.6577926 3.76066802 0 0 Z " fill="#448CCB" transform="translate(575,654)"/>
<path d="M0 0 C0.33 0 0.66 0 1 0 C1 5.61 1 11.22 1 17 C0.67 17 0.34 17 0 17 C-0.33 14.36 -0.66 11.72 -1 9 C-1.99 9.495 -1.99 9.495 -3 10 C-2.49287967 6.28111761 -1.88391785 3.26545761 0 0 Z " fill="#1C366A" transform="translate(804,442)"/>
<path d="M0 0 C0.66 0.99 1.32 1.98 2 3 C-3.30434783 12.15217391 -3.30434783 12.15217391 -7 14 C-7.99 13.67 -8.98 13.34 -10 13 C-9.071875 12.87625 -9.071875 12.87625 -8.125 12.75 C-5.86280877 12.21418644 -5.86280877 12.21418644 -5 10.21875 C-4.67 9.4865625 -4.34 8.754375 -4 8 C-2.66666667 5.33333333 -1.33333333 2.66666667 0 0 Z " fill="#3E5688" transform="translate(797,458)"/>
<path d="M0 0 C0.66 0.33 1.32 0.66 2 1 C0.59290434 2.48827426 -0.82606201 3.96533185 -2.25 5.4375 C-3.43335938 6.67306641 -3.43335938 6.67306641 -4.640625 7.93359375 C-6.90734717 9.91885207 -8.0671937 10.6300359 -11 11 C-7.6189962 6.86378916 -4.33409466 3.18683431 0 0 Z " fill="#4383C0" transform="translate(711,524)"/>
<path d="M0 0 C0 3 0 3 -1.53125 4.82421875 C-2.1809375 5.43910156 -2.830625 6.05398438 -3.5 6.6875 C-4.1496875 7.31011719 -4.799375 7.93273437 -5.46875 8.57421875 C-5.9740625 9.04472656 -6.479375 9.51523437 -7 10 C-7.99 9.67 -8.98 9.34 -10 9 C-6.7 6.03 -3.4 3.06 0 0 Z " fill="#324C7E" transform="translate(461,311)"/>
<path d="M0 0 C-1.5830577 4.2742558 -4.50568404 6.26531794 -8 9 C-8.66 8.67 -9.32 8.34 -10 8 C-8.71451591 6.66070495 -7.42141845 5.32871357 -6.125 4 C-5.04605469 2.88625 -5.04605469 2.88625 -3.9453125 1.75 C-2 0 -2 0 0 0 Z " fill="#4489C9" transform="translate(603,629)"/>
<path d="M0 0 C0 3 0 3 -1.53125 4.82421875 C-2.1809375 5.43910156 -2.830625 6.05398438 -3.5 6.6875 C-4.1496875 7.31011719 -4.799375 7.93273437 -5.46875 8.57421875 C-5.9740625 9.04472656 -6.479375 9.51523437 -7 10 C-7 7 -7 7 -4.625 4.4375 C-3.75875 3.633125 -2.8925 2.82875 -2 2 C-1.34 1.34 -0.68 0.68 0 0 Z " fill="#589AD6" transform="translate(530,697)"/>
<path d="M0 0 C0.33 0.99 0.66 1.98 1 3 C-0.32 4.32 -1.64 5.64 -3 7 C-3.99 6.67 -4.98 6.34 -6 6 C-4.02 4.02 -2.04 2.04 0 0 Z " fill="#61A2D8" transform="translate(541,686)"/>
<path d="M0 0 C0 3 0 3 -1.3125 4.38671875 C-2.875 5.59114583 -4.4375 6.79557292 -6 8 C-6.66 7.67 -7.32 7.34 -8 7 C-5.36 4.69 -2.72 2.38 0 0 Z " fill="#36AE85" transform="translate(596,539)"/>
</svg>
